# xmcd CD database file
#
# Track frame offsets:
#	150
#	19730
#	39820
#	56262
#	69245
#	84627
#	100897
#	115260
#	129177
#	147045
#	160555
#	173487
#	187847
#	203647
#	218202
#	232675
#	246837
#	261370
#	276280
#	295785
#
# Disc length: 4231 seconds
#
# Revision: 2
# Processed by: cddbd v1.5.2PL0 Copyright (c) Steve Scherf et al.
# Submitted via: jetAudio 7
#
DISCID=01108514
DTITLE=Various Artist - 日本アニメーション アニメ主題歌
DTITLE=大全集 [CD5]
DYEAR=1900
DGENRE=Anime
TTITLE0=ときめきはForever
TTITLE1=晴れた日にも愛をください
TTITLE2=Sky Way
TTITLE3=ふたりの時計
TTITLE4=瞳の中の少年
TTITLE5=虹の橋
TTITLE6=私の町はメリー・ゴーランド
TTITLE7=愛こそヒーロー
TTITLE8=ハロー・グッドバイ〜終わらないパレード〜
TTITLE9=Tango Chu Chu
TTITLE10=夢見るトッポ・ジージョ
TTITLE11=Get Up/愛を信じて
TTITLE12=地球の子
TTITLE13=ゆめいっぱい
TTITLE14=おどるポンポコリン
TTITLE15=走れ正直者
TTITLE16=ドリーム・チェイサー
TTITLE17=Tenderness 抱きしめて
TTITLE18=ジャングルで遊ぼう!
TTITLE19=Boy〜ぼくらの夢の街へ
EXTD=
EXTT0=
EXTT1=
EXTT2=
EXTT3=
EXTT4=
EXTT5=
EXTT6=
EXTT7=
EXTT8=
EXTT9=
EXTT10=
EXTT11=
EXTT12=
EXTT13=
EXTT14=
EXTT15=
EXTT16=
EXTT17=
EXTT18=
EXTT19=
PLAYORDER=
